<svg width="620" height="84" viewBox="0 0 620 84" fill="none" xmlns="http://www.w3.org/2000/svg">
<path d="M71.576 77.336C69.784 77.336 68.408 76.632 67.448 75.224C66.488 73.816 66.008 72.152 66.008 70.232C66.008 66.52 67.704 61.464 71.096 55.064C68.728 55.256 66.36 55.352 63.992 55.352C62.264 55.352 59 55.256 54.2 55.064L41.912 54.68C37.432 61.848 33.784 68.376 30.968 74.264C30.136 75.992 29.016 76.856 27.608 76.856C26.648 76.856 26.168 76.408 26.168 75.512C26.168 74.872 26.36 74.168 26.744 73.4C27.832 71.032 29.24 68.28 30.968 65.144C32.76 62.008 34.84 58.488 37.208 54.584C31.96 54.584 28.472 54.808 26.744 55.256C23.864 55.96 21.72 57.4 20.312 59.576C19.8 60.28 19.384 60.664 19.064 60.728C18.68 60.792 18.488 60.632 18.488 60.248C18.488 59.928 18.616 59.64 18.872 59.384C21.304 56.12 23.768 53.848 26.264 52.568C28.824 51.224 33.272 50.648 39.608 50.84C43.576 44.888 49.048 36.056 56.024 24.344C58.648 19.416 59.96 15.416 59.96 12.344C59.96 7.352 56.6 4.856 49.88 4.856C41.688 4.856 34.072 7 27.032 11.288C23.32 13.592 19.832 16.504 16.568 20.024C13.304 23.48 10.68 27.192 8.696 31.16C6.712 35.064 5.72 38.904 5.72 42.68C5.72 48.632 8.504 51.608 14.072 51.608C16.568 51.608 18.776 51.032 20.696 49.88C22.616 48.664 24.312 47.128 25.784 45.272C28.664 41.688 30.104 38.136 30.104 34.616C30.104 32.632 29.592 31 28.568 29.72C28.44 29.592 28.376 29.432 28.376 29.24C28.376 28.792 28.632 28.568 29.144 28.568C29.464 28.568 29.656 28.664 29.72 28.856C31 30.52 31.64 32.504 31.64 34.808C31.64 38.712 30.04 42.712 26.84 46.808C24.856 49.24 22.808 51.032 20.696 52.184C18.648 53.272 16.28 53.816 13.592 53.816C9.56 53.816 6.424 52.568 4.184 50.072C1.944 47.512 0.824 44.248 0.824 40.28C0.824 34.904 2.424 29.816 5.624 25.016C8.888 20.216 12.984 16.088 17.912 12.632C27.64 5.784 38.488 2.52 50.456 2.84C53.016 2.904 55.416 3.384 57.656 4.27999C59.896 5.112 61.688 6.36 63.032 8.024C64.44 9.624 65.144 11.64 65.144 14.072C65.144 17.144 63.96 20.568 61.592 24.344L44.216 51.032C45.496 51.096 47.16 51.224 49.208 51.416C51.256 51.544 53.688 51.768 56.504 52.088C58.872 52.344 60.856 52.536 62.456 52.664C64.056 52.728 65.272 52.76 66.104 52.76C67.576 52.76 68.824 52.76 69.848 52.76C70.936 52.76 71.8 52.728 72.44 52.664L76.088 46.616C79.288 41.304 82.616 36.28 86.072 31.544C89.592 26.744 93.24 22.232 97.016 18.008C105.592 8.536 112.92 2.712 119 0.535997C119.192 0.471998 119.416 0.439999 119.672 0.439999C120.056 0.439999 120.248 0.695997 120.248 1.20799C120.248 1.4 120.152 1.56 119.96 1.68799C117.976 2.776 115.544 4.696 112.664 7.44799C109.848 10.136 106.552 13.656 102.776 18.008C94.84 27.16 88.088 36.408 82.52 45.752L78.776 52.088C81.72 51.704 83.832 50.968 85.112 49.88C85.368 49.688 85.592 49.784 85.784 50.168C85.976 50.616 85.944 50.936 85.688 51.128C83.768 52.6 81.048 53.656 77.528 54.296C73.048 62.616 70.808 68.472 70.808 71.864C70.808 74.04 71.736 75.128 73.592 75.128C74.872 75.128 76.344 74.68 78.008 73.784C79.736 72.952 81.112 71.992 82.136 70.904C82.264 70.776 82.36 70.712 82.424 70.712C82.616 70.712 82.712 70.904 82.712 71.288C82.648 71.736 82.488 72.088 82.232 72.344C81.464 73.112 80.44 73.88 79.16 74.648C77.88 75.416 76.536 76.056 75.128 76.568C73.784 77.08 72.6 77.336 71.576 77.336ZM108.84 82.136C98.9845 81.304 94.0565 76.248 94.0565 66.968C94.0565 61.464 95.7845 55.64 99.2405 49.496C101.288 45.784 103.848 42.168 106.92 38.648C110.056 35.128 113.448 31.96 117.096 29.144C120.808 26.264 124.584 23.992 128.424 22.328C132.328 20.664 136.072 19.832 139.656 19.832C145.992 19.832 149.16 22.168 149.16 26.84C149.16 29.976 148.2 33.464 146.281 37.304C144.36 41.144 142.408 43.576 140.424 44.6C140.232 44.664 140.008 44.696 139.752 44.696C139.56 44.696 139.464 44.632 139.464 44.504L142.632 39.32C144.808 35.736 145.896 32.6 145.896 29.912C145.896 27.992 145.384 26.168 144.36 24.44C143.336 22.712 141.512 21.848 138.888 21.848C135.688 21.848 132.392 22.744 129 24.536C125.672 26.328 122.44 28.696 119.304 31.64C116.168 34.584 113.32 37.848 110.76 41.432C108.2 44.952 106.152 48.44 104.616 51.896C101.352 59.256 99.7205 65.208 99.7205 69.752C99.7205 76.6 103.208 80.024 110.184 80.024C116.84 80.024 125.864 75.736 137.256 67.16C139.88 65.176 143.24 62.392 147.336 58.808C151.496 55.224 156.36 50.872 161.928 45.752C161.16 45.816 160.2 45.912 159.049 46.04C157.897 46.104 156.552 46.264 155.016 46.52C154.376 46.648 153.768 46.776 153.192 46.904C152.616 46.968 152.072 47 151.561 47C150.28 46.872 149.736 46.552 149.928 46.04C150.184 43.672 151.4 42.488 153.576 42.488C155.56 42.744 157.417 42.936 159.145 43.064C160.937 43.192 162.632 43.256 164.232 43.256C166.729 40.952 170.025 37.752 174.121 33.656C178.281 29.496 183.209 24.408 188.905 18.392C196.264 10.648 200.744 6.776 202.345 6.776C203.049 6.776 203.4 7.416 203.4 8.696C203.4 9.208 203.336 9.848 203.208 10.616C203.081 11.384 202.889 12.28 202.632 13.304C201.992 15.736 201.32 17.208 200.617 17.72C198.633 19.128 196.969 20.952 195.625 23.192C194.345 25.368 193.033 27.8 191.688 30.488C190.345 33.24 189.097 35.704 187.945 37.88C186.857 39.992 185.865 41.88 184.969 43.544L194.281 43.352C196.584 43.352 197.736 43.512 197.736 43.832C197.736 43.896 197.672 43.992 197.544 44.12C196.457 44.824 191.849 45.464 183.72 46.04C177.768 57.624 174.792 65.56 174.792 69.848C174.792 72.792 175.72 74.264 177.576 74.264C178.281 74.264 179.177 73.816 180.264 72.92C181.288 72.088 181.929 71.672 182.185 71.672C182.185 71.544 182.217 71.512 182.281 71.576C182.344 71.64 182.312 71.672 182.185 71.672C181.865 72.824 180.905 73.848 179.304 74.744C177.768 75.704 176.136 76.184 174.408 76.184C172.809 76.184 171.753 75.672 171.24 74.648C170.728 73.624 170.472 72.216 170.472 70.424C170.472 63.96 172.936 55.736 177.865 45.752L166.344 46.04C157.768 54.424 149.16 61.784 140.52 68.12C126.76 78.104 116.2 82.776 108.84 82.136ZM178.729 43.256C179.497 41.784 181.033 39.128 183.336 35.288C185.64 31.384 188.744 26.328 192.648 20.12L168.073 43.16L178.729 43.256ZM257.115 81.752C254.555 81.752 252.347 80.728 250.491 78.68C248.699 76.632 247.131 74.008 245.787 70.808C244.443 67.608 243.259 64.312 242.235 60.92C239.867 53.176 238.875 48.568 239.259 47.096C235.483 52.152 232.219 56.376 229.467 59.768C226.715 63.096 224.475 65.592 222.747 67.256C215.195 74.552 207.547 78.2 199.803 78.2C197.499 78.2 195.611 77.72 194.139 76.76C192.603 75.8 191.835 74.2 191.835 71.96C191.835 70.552 192.155 69.048 192.795 67.448C193.435 65.784 194.235 64.216 195.195 62.744C196.155 61.272 197.115 60.056 198.075 59.096C200.187 56.984 201.947 55.928 203.355 55.928C203.611 55.928 203.739 55.992 203.739 56.12C203.739 56.44 203.259 56.984 202.299 57.752C200.059 59.544 198.203 61.624 196.731 63.992C195.259 66.296 194.523 68.408 194.523 70.328C194.523 73.912 197.051 75.608 202.107 75.416C210.363 75.096 221.819 65.112 236.475 45.464C237.307 44.376 238.011 43.608 238.587 43.16L237.051 42.584C236.219 42.904 235.547 43.064 235.035 43.064C233.691 43.064 233.019 42.52 233.019 41.432C233.019 39.96 234.011 39 235.995 38.552C237.211 38.232 238.779 38.776 240.699 40.184C243.195 37.368 245.595 34.68 247.899 32.12C250.267 29.56 252.411 27.48 254.331 25.88C256.251 24.216 257.787 23.384 258.939 23.384C260.475 23.384 261.243 24.088 261.243 25.496C261.243 26.072 261.083 26.68 260.763 27.32C260.507 27.896 260.187 28.184 259.803 28.184C259.419 28.248 259.227 28.056 259.227 27.608C259.227 27.288 259.419 26.904 259.803 26.456V26.072C259.803 25.688 259.675 25.4 259.419 25.208C257.755 24.12 252.635 29.528 244.059 41.432C244.763 41.496 245.499 41.56 246.267 41.624C247.099 41.624 247.963 41.624 248.859 41.624C263.707 41.624 272.987 37.784 276.699 30.104C277.467 28.44 277.851 26.904 277.851 25.496C277.851 22.68 276.539 20.216 273.915 18.104C271.547 16.184 268.411 14.904 264.507 14.264C260.667 13.56 256.827 13.208 252.987 13.208C244.475 13.208 235.419 15.544 225.819 20.216C214.171 25.912 208.347 32.6 208.347 40.28C208.347 42.776 209.979 44.024 213.243 44.024C216.251 44.024 219.643 42.808 223.419 40.376C226.683 38.2 228.923 35.992 230.139 33.752C230.587 32.92 231.003 32.504 231.387 32.504C231.835 32.504 231.963 32.76 231.771 33.272C230.555 36.856 227.835 39.928 223.611 42.488C219.515 44.984 215.291 46.232 210.939 46.232C205.755 46.232 203.355 44.568 203.739 41.24C204.699 32.856 209.851 25.72 219.195 19.832C228.475 14.008 239.675 11.096 252.795 11.096C257.787 11.096 262.619 11.544 267.291 12.44C272.027 13.336 275.867 15 278.811 17.432C281.883 19.992 283.419 23 283.419 26.456C283.419 27.928 283.067 29.528 282.363 31.256C281.275 33.752 279.611 35.896 277.371 37.688C275.131 39.416 272.539 40.824 269.595 41.912C266.651 43 263.547 43.8 260.283 44.312C257.019 44.824 253.851 45.08 250.779 45.08C249.115 45.08 247.515 45.016 245.979 44.888C244.507 44.76 243.131 44.568 241.851 44.312C242.235 45.528 242.907 47.736 243.867 50.936C244.827 54.136 246.043 58.296 247.515 63.416C247.963 64.824 248.571 66.36 249.339 68.024C250.171 69.688 251.099 71.256 252.123 72.728C253.147 74.2 254.235 75.416 255.387 76.376C256.603 77.336 257.819 77.816 259.035 77.816C261.723 77.816 263.963 75.096 265.755 69.656C266.075 68.376 266.427 67.736 266.811 67.736C267.131 67.736 267.419 68.344 267.675 69.56C267.739 69.752 267.771 70.008 267.771 70.328C267.771 71.992 266.875 74.04 265.083 76.472C262.715 79.992 260.059 81.752 257.115 81.752ZM312.887 76.568C302.199 77.08 294.519 74.424 289.847 68.6C284.215 72.952 280.087 75.128 277.463 75.128C276.055 75.128 274.999 74.424 274.295 73.016C273.655 71.672 273.335 70.2 273.335 68.6C273.335 65.528 274.519 61.112 276.887 55.352C279.703 48.824 282.295 45.56 284.663 45.56C285.879 45.56 286.807 47.48 287.447 51.32C288.535 57.08 289.527 61.048 290.423 63.224C292.535 60.984 295.159 57.944 298.295 54.104C301.495 50.264 305.175 45.624 309.335 40.184C319.703 26.552 326.583 19.096 329.975 17.816C331.127 17.368 332.279 17.144 333.431 17.144C334.711 17.144 335.735 17.432 336.503 18.008C337.335 18.52 337.751 19.128 337.751 19.832C337.751 20.92 336.823 21.56 334.967 21.752C333.623 22.456 331.959 23.672 329.975 25.4C328.055 27.128 326.007 29.112 323.831 31.352C321.719 33.528 319.735 35.704 317.879 37.88C316.023 39.992 314.519 41.816 313.367 43.352C306.519 52.888 299.671 60.504 292.823 66.2L292.247 66.68C294.295 69.688 296.759 71.768 299.639 72.92C302.519 74.072 305.719 74.648 309.239 74.648C315.063 74.648 320.599 73.752 325.847 71.96C331.159 70.232 335.927 67.64 340.151 64.184C344.439 60.664 347.959 56.376 350.711 51.32C353.719 45.816 355.223 40.568 355.223 35.576C355.223 32.184 354.487 28.984 353.015 25.976C351.543 22.904 349.559 20.28 347.063 18.104C344.631 15.928 341.911 14.52 338.903 13.88C335.383 13.112 331.703 12.728 327.863 12.728C318.007 12.728 308.919 15 300.599 19.544C291.831 24.344 287.447 29.72 287.447 35.672C287.447 37.272 287.927 38.648 288.887 39.8C289.655 40.696 290.199 41.208 290.519 41.336H289.943C288.151 41.016 286.615 40.12 285.335 38.648C284.055 37.176 283.415 35.544 283.415 33.752C283.415 30.424 284.439 27.384 286.487 24.632C288.599 21.816 291.639 19.256 295.607 16.952C303.543 12.408 312.919 10.136 323.735 10.136C326.167 10.136 328.599 10.264 331.031 10.52C333.463 10.776 335.863 11.16 338.231 11.672C342.391 12.568 346.167 14.264 349.559 16.76C352.951 19.256 355.671 22.296 357.719 25.88C359.767 29.464 360.791 33.336 360.791 37.496C360.791 42.296 359.383 47.256 356.567 52.376C353.751 57.56 350.103 61.912 345.623 65.432C341.207 68.888 336.215 71.512 330.647 73.304C325.079 75.16 319.159 76.248 312.887 76.568ZM277.943 73.4C280.695 72.184 284.023 69.656 287.927 65.816C286.071 62.744 284.855 60.152 284.279 58.04C283.895 56.632 283.607 54.488 283.415 51.608C278.999 57.944 276.791 63.48 276.791 68.216C276.791 70.2 277.175 71.928 277.943 73.4ZM388.717 78.68C384.429 78.68 380.429 78.136 376.717 77.048C373.069 75.96 370.093 74.296 367.789 72.056C365.549 69.816 364.429 67 364.429 63.608C364.429 60.984 365.261 58.36 366.925 55.736C372.813 46.392 382.861 39.448 397.069 34.904C394.957 32.472 393.901 29.72 393.901 26.648C393.901 24.152 394.573 22.008 395.917 20.216C398.541 16.632 402.509 13.656 407.821 11.288C410.829 10.008 413.869 9.016 416.941 8.31199C420.077 7.608 423.245 7.256 426.445 7.256C430.413 7.256 433.421 7.896 435.469 9.17599C437.581 10.456 438.637 12.248 438.637 14.552C438.637 16.152 438.189 17.624 437.293 18.968C436.461 20.248 435.405 21.304 434.125 22.136C432.845 22.904 431.533 23.288 430.189 23.288C428.205 23.288 427.213 22.808 427.213 21.848C427.213 21.272 427.629 20.984 428.461 20.984C428.717 20.984 429.037 21.048 429.421 21.176C429.869 21.24 430.189 21.272 430.381 21.272C431.725 21.272 432.909 20.568 433.933 19.16C434.957 17.752 435.469 16.344 435.469 14.936C435.469 12.888 434.477 11.416 432.493 10.52C430.573 9.62399 428.397 9.17599 425.965 9.17599C419.885 9.17599 413.933 11.128 408.109 15.032C401.965 19.064 398.893 23.608 398.893 28.664C398.893 30.52 399.533 32.248 400.813 33.848C403.053 33.144 405.133 32.664 407.053 32.408C409.037 32.088 410.925 31.928 412.717 31.928C418.861 31.928 421.933 33.112 421.933 35.48C421.933 36.568 421.485 37.528 420.589 38.36C419.693 39.128 418.541 39.736 417.133 40.184C415.789 40.568 414.413 40.76 413.005 40.76C411.533 40.76 409.901 40.568 408.109 40.184C406.317 39.8 404.589 39.288 402.925 38.648C401.261 38.008 399.853 37.272 398.701 36.44C392.685 38.168 387.341 40.856 382.669 44.504C378.061 48.088 374.637 52.12 372.397 56.6C371.181 59.032 370.573 61.4 370.573 63.704C370.573 66.52 371.373 68.824 372.973 70.616C374.573 72.408 376.685 73.72 379.309 74.552C381.997 75.384 384.941 75.8 388.141 75.8C393.453 75.8 398.733 74.936 403.981 73.208C409.229 71.544 413.709 69.048 417.421 65.72C422.477 61.24 425.005 56.536 425.005 51.608C425.005 47.704 423.117 45.752 419.341 45.752C417.357 45.752 415.149 46.264 412.717 47.288C410.285 48.248 407.981 49.56 405.805 51.224C403.693 52.888 401.933 54.712 400.525 56.696C399.117 58.68 398.413 60.696 398.413 62.744C398.413 64.792 399.309 66.04 401.101 66.488C401.741 66.744 402.061 67.064 402.061 67.448C402.061 67.96 401.581 68.216 400.621 68.216C397.229 68.216 395.533 66.328 395.533 62.552C395.533 60.056 396.269 57.688 397.741 55.448C399.213 53.208 401.101 51.224 403.405 49.496C405.773 47.768 408.333 46.424 411.085 45.464C413.837 44.44 416.493 43.928 419.053 43.928C422.061 43.928 424.397 44.6 426.061 45.944C427.725 47.224 428.557 49.336 428.557 52.28C428.557 58.232 425.261 63.832 418.669 69.08C414.509 72.472 409.901 74.904 404.845 76.376C399.789 77.912 394.413 78.68 388.717 78.68ZM412.141 38.648C415.597 38.648 417.325 37.656 417.325 35.672C417.325 34.776 415.597 34.328 412.141 34.328C410.605 34.328 409.005 34.424 407.341 34.616C405.741 34.808 404.109 35.064 402.445 35.384C405.197 37.56 408.429 38.648 412.141 38.648ZM458.932 78.68C454.644 78.68 450.644 78.136 446.932 77.048C443.284 75.96 440.308 74.296 438.004 72.056C435.764 69.816 434.644 67 434.644 63.608C434.644 60.984 435.476 58.36 437.14 55.736C443.028 46.392 453.076 39.448 467.284 34.904C465.172 32.472 464.116 29.72 464.116 26.648C464.116 24.152 464.788 22.008 466.132 20.216C468.756 16.632 472.724 13.656 478.036 11.288C481.044 10.008 484.084 9.016 487.156 8.31199C490.292 7.608 493.46 7.256 496.66 7.256C500.628 7.256 503.636 7.896 505.684 9.17599C507.796 10.456 508.852 12.248 508.852 14.552C508.852 16.152 508.404 17.624 507.508 18.968C506.676 20.248 505.62 21.304 504.34 22.136C503.06 22.904 501.748 23.288 500.404 23.288C498.42 23.288 497.428 22.808 497.428 21.848C497.428 21.272 497.844 20.984 498.676 20.984C498.932 20.984 499.252 21.048 499.636 21.176C500.084 21.24 500.404 21.272 500.596 21.272C501.94 21.272 503.124 20.568 504.148 19.16C505.172 17.752 505.684 16.344 505.684 14.936C505.684 12.888 504.692 11.416 502.708 10.52C500.788 9.62399 498.612 9.17599 496.18 9.17599C490.1 9.17599 484.148 11.128 478.324 15.032C472.18 19.064 469.108 23.608 469.108 28.664C469.108 30.52 469.748 32.248 471.028 33.848C473.268 33.144 475.348 32.664 477.268 32.408C479.252 32.088 481.14 31.928 482.932 31.928C489.076 31.928 492.148 33.112 492.148 35.48C492.148 36.568 491.7 37.528 490.804 38.36C489.908 39.128 488.756 39.736 487.348 40.184C486.004 40.568 484.628 40.76 483.22 40.76C481.748 40.76 480.116 40.568 478.324 40.184C476.532 39.8 474.804 39.288 473.14 38.648C471.476 38.008 470.068 37.272 468.916 36.44C462.9 38.168 457.556 40.856 452.884 44.504C448.276 48.088 444.852 52.12 442.612 56.6C441.396 59.032 440.788 61.4 440.788 63.704C440.788 66.52 441.588 68.824 443.188 70.616C444.788 72.408 446.9 73.72 449.524 74.552C452.212 75.384 455.156 75.8 458.356 75.8C463.668 75.8 468.948 74.936 474.196 73.208C479.444 71.544 483.924 69.048 487.636 65.72C492.692 61.24 495.22 56.536 495.22 51.608C495.22 47.704 493.332 45.752 489.556 45.752C487.572 45.752 485.364 46.264 482.932 47.288C480.5 48.248 478.196 49.56 476.02 51.224C473.908 52.888 472.148 54.712 470.74 56.696C469.332 58.68 468.628 60.696 468.628 62.744C468.628 64.792 469.524 66.04 471.316 66.488C471.956 66.744 472.276 67.064 472.276 67.448C472.276 67.96 471.796 68.216 470.836 68.216C467.444 68.216 465.748 66.328 465.748 62.552C465.748 60.056 466.484 57.688 467.956 55.448C469.428 53.208 471.316 51.224 473.62 49.496C475.988 47.768 478.548 46.424 481.3 45.464C484.052 44.44 486.708 43.928 489.268 43.928C492.276 43.928 494.612 44.6 496.276 45.944C497.94 47.224 498.772 49.336 498.772 52.28C498.772 58.232 495.476 63.832 488.884 69.08C484.724 72.472 480.116 74.904 475.06 76.376C470.004 77.912 464.628 78.68 458.932 78.68ZM482.356 38.648C485.812 38.648 487.54 37.656 487.54 35.672C487.54 34.776 485.812 34.328 482.356 34.328C480.82 34.328 479.22 34.424 477.556 34.616C475.956 34.808 474.324 35.064 472.66 35.384C475.412 37.56 478.644 38.648 482.356 38.648ZM525.019 81.368C520.027 81.368 516.059 80.184 513.115 77.816C510.171 75.512 508.699 72.152 508.699 67.736C508.699 64.536 509.371 61.528 510.715 58.712C512.123 55.832 514.011 53.272 516.379 51.032C518.747 48.792 521.435 47.032 524.443 45.752C527.515 44.472 530.715 43.832 534.043 43.832C537.435 43.832 540.091 44.6 542.011 46.136C543.995 47.672 544.987 49.752 544.987 52.376C544.987 54.296 543.739 56.792 541.243 59.864C538.747 62.936 537.499 63.96 537.499 62.936C537.499 62.68 537.595 62.424 537.787 62.168C539.835 59.16 540.859 56.344 540.859 53.72C540.859 51.352 540.091 49.464 538.555 48.056C537.083 46.648 535.131 45.944 532.699 45.944C530.011 45.944 527.419 46.616 524.923 47.96C522.491 49.24 520.315 50.968 518.395 53.144C516.475 55.32 514.971 57.72 513.883 60.344C512.795 62.968 512.251 65.56 512.251 68.12C512.251 71.64 513.371 74.296 515.611 76.088C517.915 77.944 520.923 78.872 524.635 78.872C528.411 78.872 532.027 78.168 535.483 76.76C539.003 75.416 542.139 73.464 544.891 70.904C548.155 67.832 551.451 63.352 554.779 57.464L563.131 42.392C565.307 38.936 567.579 34.776 569.947 29.912C572.315 24.984 574.811 19.352 577.435 13.016C568.219 12.888 559.259 13.784 550.555 15.704C541.275 17.688 534.395 20.44 529.915 23.96C527.995 25.368 527.035 26.84 527.035 28.376C527.035 29.72 527.771 30.84 529.243 31.736C530.779 32.568 532.699 32.984 535.003 32.984C536.347 32.984 537.947 32.792 539.803 32.408C541.659 32.024 543.451 31.512 545.179 30.872C546.907 30.168 548.219 29.4 549.115 28.568C549.755 28.056 550.203 27.8 550.459 27.8C550.971 27.8 551.067 28.056 550.747 28.568C549.403 30.168 547.643 31.512 545.467 32.6C543.355 33.688 541.115 34.52 538.747 35.096C536.379 35.608 534.171 35.864 532.123 35.864C528.987 35.864 526.523 35.256 524.731 34.04C523.003 32.76 522.139 31.128 522.139 29.144C522.139 26.84 523.291 24.6 525.595 22.424C529.947 18.2 537.723 15.064 548.923 13.016C553.275 12.248 557.947 11.704 562.939 11.384C567.931 11 573.243 10.84 578.875 10.904C580.283 9.688 581.627 9.08 582.907 9.08C584.187 9.08 584.667 9.752 584.347 11.096C588.379 11.352 592.443 11.864 596.539 12.632C600.699 13.4 604.475 14.488 607.867 15.896C611.323 17.24 614.107 18.936 616.219 20.984C618.331 22.968 619.387 25.336 619.387 28.088C619.387 31.032 618.395 33.848 616.411 36.536C614.491 39.16 611.995 41.496 608.923 43.544C605.915 45.592 602.747 47.224 599.419 48.44C596.347 49.528 593.051 50.392 589.531 51.032C586.075 51.672 582.651 51.992 579.259 51.992C576.699 51.992 574.235 51.8 571.867 51.416C569.563 51.032 567.451 50.424 565.531 49.592C561.627 55.288 558.363 59.928 555.739 63.512C553.179 67.096 551.195 69.592 549.787 71C542.875 77.912 534.619 81.368 525.019 81.368ZM576.859 49.688C579.227 49.688 581.563 49.464 583.867 49.016C586.235 48.504 588.763 47.832 591.451 47C594.139 46.104 596.859 44.984 599.611 43.64C602.363 42.232 604.891 40.664 607.195 38.936C609.499 37.144 611.355 35.256 612.763 33.272C614.171 31.224 614.875 29.176 614.875 27.128C614.875 24.824 613.915 22.84 611.995 21.176C610.075 19.448 607.547 18.04 604.411 16.952C601.275 15.864 597.883 15.032 594.235 14.456C590.587 13.816 587.067 13.4 583.675 13.208L580.603 22.808C579.515 25.56 577.979 28.76 575.995 32.408C574.011 36.056 571.579 40.152 568.699 44.696L566.587 47.96C567.035 48.216 567.515 48.44 568.027 48.632C568.603 48.76 569.211 48.888 569.851 49.016C571.067 49.272 572.251 49.464 573.403 49.592C574.555 49.656 575.707 49.688 576.859 49.688Z" fill="white"/>
</svg>
